<svg id="Layer_2" data-name="Layer 2" xmlns="http://www.w3.org/2000/svg" viewBox="0 0 182.47 182.47"><defs><style>.cls-1{fill:#fbeaeb;}.cls-2{fill:none;stroke:#3b215b;stroke-miterlimit:10;}.cls-3{fill:#3b215b;}</style></defs><circle class="cls-1" cx="91.23" cy="91.23" r="91.23"/><circle class="cls-2" cx="90.34" cy="92.08" r="82.51"/><path class="cls-2" d="M30.82,116.71l7.59,3.81a.75.75,0,0,0,1-.26L72.28,69.58a.73.73,0,0,1,1.35.42l-1.77,50.67a.72.72,0,0,0,.52.73l11.53,3.37a.73.73,0,0,0,.94-.69l.7-70.45a.74.74,0,0,0-.74-.74H76.74a.75.75,0,0,0-.6.31L30.82,116.71Z"/><path class="cls-3" d="M94.32,52.89h16.51v26.3s11.91,1.53,16.17-26.3h16.17s11.23,42.05-71,38.34c0,0-41.79-4.29-44.59-5.49L24,84.64v6.82s57.44-7.08,78.72-3.67c21.54,3.44,34.74,12.69,37.88,21.66,3.53,10.08,3.07,16.21,3.07,16.21H127.34s-8.68-30-17.11-25.53v25.53H94.15V52.26"/></svg>